<svg width="128" height="50" viewBox="0 0 128 50" fill="none" xmlns="http://www.w3.org/2000/svg">
<g clip-path="url(#clip0)">
<path d="M60 25.5C60 37.9266 49.9266 48 37.5 48C25.0734 48 15 37.9266 15 25.5C15 20.6794 16.5161 16.2117 19.0979 12.5502C20.3421 10.7848 21.8345 9.20625 23.5244 7.8666C27.3631 4.81927 32.2183 3 37.5 3C49.9266 3 60 13.0734 60 25.5Z" fill="#96D6D4"/>
<path d="M39.6564 12.382C39.6564 11.7355 40.1796 11.2112 40.8271 11.2112H51.9515C52.2746 11.2112 52.5677 11.3424 52.7799 11.5546C52.9911 11.7657 53.1222 12.0589 53.1222 12.382C53.1222 13.0284 53.6468 13.553 54.2933 13.553H56.5688C57.0409 14.3049 57.4701 15.0867 57.8518 15.8949H56.1143C55.7912 15.8949 55.498 16.026 55.2869 16.2382C55.0747 16.4493 54.9435 16.7425 54.9435 17.0656C54.9435 17.7124 54.4189 18.2367 53.7725 18.2367H42.6485C42.3251 18.2367 42.0322 18.1052 41.82 17.893C41.6089 17.6818 41.4774 17.389 41.4774 17.0656C41.4774 16.4191 42.002 15.8949 42.6485 15.8949H46.4219C47.0684 15.8949 47.593 15.3703 47.593 14.7238C47.593 14.0773 47.0684 13.553 46.4219 13.553H40.8271C40.503 13.553 40.2109 13.4216 39.999 13.2094C39.7869 12.9982 39.6564 12.7054 39.6564 12.382V12.382Z" fill="#E6E6E6"/>
<path d="M31.3305 11.3791C31.3305 12.0256 30.8059 12.5502 30.1594 12.5502H19.0979C20.3421 10.7849 21.8345 9.20625 23.5244 7.86661H25.9633C26.2867 7.86661 26.5796 7.99776 26.7918 8.20993C27.0029 8.42107 27.1344 8.71393 27.1344 9.03734C27.1344 9.68382 27.6587 10.2084 28.3055 10.2084H30.1594C30.4828 10.2084 30.7757 10.3396 30.9868 10.5517C31.199 10.7629 31.3305 11.0561 31.3305 11.3791Z" fill="#E6E6E6"/>
<path d="M60 25.5C60 26.2687 59.9615 27.0281 59.886 27.7766C59.7336 29.2965 59.4297 30.7714 58.9899 32.1866C56.1421 41.3481 47.5975 48 37.5 48C27.0932 48 18.3364 40.9351 15.766 31.3389C15.4803 30.2773 15.2719 29.1856 15.1452 28.0687C15.0494 27.2255 15 26.3686 15 25.5H60Z" fill="#0084A6"/>
<path d="M52.9622 32.3345C52.9622 32.1707 52.278 32.0379 51.4338 32.0379C50.5895 32.0379 49.9049 32.1707 49.9049 32.3345C49.9049 32.4983 50.5895 32.6311 51.4338 32.6311C52.278 32.6311 52.9622 32.4983 52.9622 32.3345V32.3345Z" fill="#69B8D4"/>
<path d="M50.5092 33.9224C50.5092 33.7586 49.8249 33.6257 48.9807 33.6257C48.1365 33.6257 47.4519 33.7586 47.4519 33.9224C47.4519 34.0865 48.1365 34.2194 48.9807 34.2194C49.8249 34.2194 50.5092 34.0865 50.5092 33.9224Z" fill="#69B8D4"/>
<path d="M35.838 32.238C35.838 32.0743 35.1537 31.9414 34.3095 31.9414C33.4653 31.9414 32.781 32.0743 32.781 32.238C32.781 32.4018 33.4653 32.5347 34.3095 32.5347C35.1537 32.5347 35.838 32.4018 35.838 32.238Z" fill="#69B8D4"/>
<path d="M45.0548 44.0514C45.0548 43.7696 43.8776 43.5413 42.4257 43.5413C40.9737 43.5413 39.7965 43.7696 39.7965 44.0514C39.7965 44.3333 40.9737 44.2403 42.4257 44.2403C43.8776 44.2403 45.0548 44.3333 45.0548 44.0514Z" fill="#69B8D4"/>
<path d="M39.1346 45.3866C39.1346 45.1047 37.9573 44.8764 36.5054 44.8764C35.0535 44.8764 33.8762 45.1047 33.8762 45.3866C33.8762 45.6685 35.0535 45.5754 36.5054 45.5754C37.9573 45.5754 39.1346 45.6685 39.1346 45.3866Z" fill="#69B8D4"/>
<path d="M29.333 39.3053C29.333 39.0235 28.1561 38.7952 26.7039 38.7952C25.252 38.7952 24.0747 39.0238 24.0747 39.3053C24.0747 39.5872 25.252 39.4942 26.7039 39.4942C28.1561 39.4942 29.333 39.5872 29.333 39.3053Z" fill="#69B8D4"/>
<path d="M57.1817 27.6877C51.7321 27.7529 51.5979 29.1543 45.8874 29.1543C40.0392 29.1543 40.0392 27.6849 34.1904 27.6849C28.7508 27.6849 28.3704 28.9559 23.639 29.133L18.5366 28.8447L18.3522 28.8347L18.3649 28.8134L25.2571 17.8151C26.1326 16.4191 27.9103 15.8938 29.4027 16.5901L33.6987 18.5958C34.4492 18.9456 35.3051 18.9971 36.0931 18.74L41.6686 16.9169C42.3635 16.6893 43.0893 16.7085 43.7423 16.9324L43.743 16.9334C44.4739 17.184 45.1142 17.6949 45.5193 18.4066L47.3091 21.5573C48.1046 22.956 49.7995 23.5668 51.304 22.9965C51.6833 22.8523 52.0744 22.7836 52.461 22.7836C53.597 22.7836 54.6871 23.3796 55.2851 24.4127L57.1817 27.6877Z" fill="white"/>
<path d="M30.0832 25.9655C30.0832 26.1475 30.0485 26.335 29.9723 26.5186L29.2778 28.1917C27.43 28.616 26.0323 29.1543 22.493 29.1543C20.6645 29.1543 19.4072 29.0101 18.3649 28.8134L25.2571 17.8151C26.1326 16.4191 27.9103 15.8938 29.4027 16.5901L27.2841 22.6089C26.9545 23.5448 27.6497 24.5267 28.6423 24.5267C29.4707 24.5267 30.0832 25.2051 30.0832 25.9655Z" fill="#CCCCCC"/>
<path d="M43.743 16.9334L41.0688 21.7142C40.2009 23.266 38.0624 23.4991 36.8803 22.1708L33.6987 18.5958C34.4492 18.9456 35.3051 18.9971 36.0931 18.74L41.6686 16.9169C42.3635 16.6893 43.0893 16.7085 43.7423 16.9324L43.743 16.9334Z" fill="#CCCCCC"/>
<path d="M18.5366 28.8447L18.3522 28.8347L18.3649 28.8134C18.4209 28.8237 18.4789 28.8347 18.5366 28.8447Z" fill="#0084A6"/>
<path d="M43.7014 26.714L44.166 24.9987C44.3266 24.4051 45.0998 24.2568 45.4689 24.7488L46.5407 26.178C46.8693 26.6161 46.6235 27.2465 46.0855 27.3464L44.5488 27.6324C44.0142 27.7319 43.5593 27.2386 43.7014 26.714V26.714Z" fill="#CCCCCC"/>
</g>
<rect x="37.25" y="13.25" width="74.5" height="24.5" rx="12.25" fill="white" stroke="#7C7C7C" stroke-width="0.5"/>
<path d="M53.856 26.652H50.652C50.516 26.98 50.4 27.272 50.304 27.528C50.208 27.776 50.128 27.992 50.064 28.176C50.008 28.36 49.968 28.516 49.944 28.644C49.92 28.772 49.908 28.876 49.908 28.956C49.908 29.18 49.98 29.336 50.124 29.424C50.268 29.504 50.508 29.544 50.844 29.544V30H47.928V29.544C48.112 29.52 48.268 29.488 48.396 29.448C48.532 29.408 48.648 29.352 48.744 29.28C48.848 29.208 48.936 29.116 49.008 29.004C49.088 28.884 49.164 28.74 49.236 28.572L52.356 20.76H52.872L55.596 27.528C55.78 27.976 55.94 28.336 56.076 28.608C56.212 28.872 56.344 29.072 56.472 29.208C56.6 29.344 56.736 29.432 56.88 29.472C57.032 29.512 57.212 29.532 57.42 29.532V30H53.508V29.532C53.932 29.532 54.224 29.492 54.384 29.412C54.544 29.332 54.624 29.2 54.624 29.016C54.624 28.936 54.62 28.864 54.612 28.8C54.604 28.728 54.588 28.652 54.564 28.572C54.548 28.492 54.52 28.404 54.48 28.308C54.448 28.204 54.404 28.084 54.348 27.948L53.856 26.652ZM50.892 26.052H53.628L52.296 22.512L50.892 26.052ZM63.1255 26.652H59.9215C59.7855 26.98 59.6695 27.272 59.5735 27.528C59.4775 27.776 59.3975 27.992 59.3335 28.176C59.2775 28.36 59.2375 28.516 59.2135 28.644C59.1895 28.772 59.1775 28.876 59.1775 28.956C59.1775 29.18 59.2495 29.336 59.3935 29.424C59.5375 29.504 59.7775 29.544 60.1135 29.544V30H57.1975V29.544C57.3815 29.52 57.5375 29.488 57.6655 29.448C57.8015 29.408 57.9175 29.352 58.0135 29.28C58.1175 29.208 58.2055 29.116 58.2775 29.004C58.3575 28.884 58.4335 28.74 58.5055 28.572L61.6255 20.76H62.1415L64.8655 27.528C65.0495 27.976 65.2095 28.336 65.3455 28.608C65.4815 28.872 65.6135 29.072 65.7415 29.208C65.8695 29.344 66.0055 29.432 66.1495 29.472C66.3015 29.512 66.4815 29.532 66.6895 29.532V30H62.7775V29.532C63.2015 29.532 63.4935 29.492 63.6535 29.412C63.8135 29.332 63.8935 29.2 63.8935 29.016C63.8935 28.936 63.8895 28.864 63.8815 28.8C63.8735 28.728 63.8575 28.652 63.8335 28.572C63.8175 28.492 63.7895 28.404 63.7495 28.308C63.7175 28.204 63.6735 28.084 63.6175 27.948L63.1255 26.652ZM60.1615 26.052H62.8975L61.5655 22.512L60.1615 26.052Z" fill="#127EB1"/>
<path d="M71.12 28.092C71.12 28.396 71.136 28.644 71.168 28.836C71.208 29.02 71.288 29.164 71.408 29.268C71.528 29.364 71.696 29.432 71.912 29.472C72.136 29.512 72.428 29.536 72.788 29.544V30H68.54V29.544C68.82 29.536 69.044 29.512 69.212 29.472C69.388 29.432 69.524 29.364 69.62 29.268C69.716 29.172 69.78 29.036 69.812 28.86C69.844 28.684 69.86 28.456 69.86 28.176V22.584C69.86 22.304 69.844 22.08 69.812 21.912C69.788 21.736 69.732 21.6 69.644 21.504C69.564 21.4 69.444 21.332 69.284 21.3C69.124 21.26 68.916 21.232 68.66 21.216V20.76H75.596L75.728 23.052H75.308C75.26 22.708 75.184 22.428 75.08 22.212C74.976 21.988 74.828 21.812 74.636 21.684C74.452 21.556 74.216 21.468 73.928 21.42C73.64 21.364 73.28 21.336 72.848 21.336H71.324C71.188 21.336 71.12 21.404 71.12 21.54V25.164C71.504 25.164 71.832 25.144 72.104 25.104C72.384 25.056 72.612 24.976 72.788 24.864C72.972 24.752 73.112 24.6 73.208 24.408C73.304 24.216 73.364 23.968 73.388 23.664H73.808V27.18H73.388C73.348 26.876 73.284 26.624 73.196 26.424C73.108 26.224 72.976 26.068 72.8 25.956C72.632 25.844 72.412 25.764 72.14 25.716C71.868 25.668 71.528 25.644 71.12 25.644V28.092ZM78.5976 28.092C78.5976 28.42 78.6056 28.68 78.6216 28.872C78.6376 29.064 78.6776 29.212 78.7416 29.316C78.8136 29.412 78.9136 29.476 79.0416 29.508C79.1696 29.54 79.3496 29.564 79.5816 29.58V30H76.3896V29.58C76.6216 29.572 76.8056 29.552 76.9416 29.52C77.0776 29.48 77.1816 29.412 77.2536 29.316C77.3256 29.22 77.3696 29.084 77.3856 28.908C77.4096 28.724 77.4216 28.48 77.4216 28.176V26.772C77.4216 26.228 77.4136 25.804 77.3976 25.5C77.3896 25.196 77.3496 24.972 77.2776 24.828C77.2136 24.684 77.1096 24.6 76.9656 24.576C76.8216 24.544 76.6216 24.528 76.3656 24.528V24.108L78.4656 23.652L78.6336 25.14H78.6816C78.7856 24.9 78.9136 24.68 79.0656 24.48C79.2256 24.28 79.3976 24.112 79.5816 23.976C79.7656 23.832 79.9576 23.72 80.1576 23.64C80.3576 23.56 80.5616 23.52 80.7696 23.52C81.0256 23.52 81.2256 23.584 81.3696 23.712C81.5216 23.832 81.5976 23.996 81.5976 24.204C81.5976 24.396 81.5376 24.548 81.4176 24.66C81.2976 24.764 81.1256 24.816 80.9016 24.816C80.7736 24.816 80.6656 24.8 80.5776 24.768C80.4896 24.736 80.4096 24.704 80.3376 24.672C80.2736 24.632 80.2096 24.596 80.1456 24.564C80.0896 24.532 80.0256 24.516 79.9536 24.516C79.7376 24.516 79.5216 24.656 79.3056 24.936C79.0896 25.208 78.9216 25.556 78.8016 25.98C78.7376 26.212 78.6856 26.476 78.6456 26.772C78.6136 27.06 78.5976 27.364 78.5976 27.684V28.092ZM85.4234 23.52C85.8794 23.52 86.3114 23.604 86.7194 23.772C87.1274 23.932 87.4834 24.156 87.7874 24.444C88.0994 24.732 88.3434 25.076 88.5194 25.476C88.7034 25.868 88.7954 26.3 88.7954 26.772C88.7954 27.26 88.7034 27.708 88.5194 28.116C88.3434 28.524 88.0994 28.876 87.7874 29.172C87.4834 29.468 87.1274 29.7 86.7194 29.868C86.3114 30.036 85.8794 30.12 85.4234 30.12C84.9754 30.12 84.5474 30.04 84.1394 29.88C83.7394 29.712 83.3874 29.48 83.0834 29.184C82.7794 28.888 82.5394 28.536 82.3634 28.128C82.1874 27.712 82.0994 27.26 82.0994 26.772C82.0994 26.3 82.1874 25.864 82.3634 25.464C82.5394 25.064 82.7794 24.72 83.0834 24.432C83.3874 24.144 83.7394 23.92 84.1394 23.76C84.5474 23.6 84.9754 23.52 85.4234 23.52ZM85.4234 24.096C85.1274 24.096 84.8554 24.16 84.6074 24.288C84.3674 24.416 84.1594 24.6 83.9834 24.84C83.8154 25.072 83.6834 25.356 83.5874 25.692C83.4994 26.02 83.4554 26.384 83.4554 26.784C83.4554 27.2 83.4994 27.576 83.5874 27.912C83.6834 28.248 83.8154 28.536 83.9834 28.776C84.1594 29.008 84.3674 29.188 84.6074 29.316C84.8474 29.444 85.1194 29.508 85.4234 29.508C85.7274 29.508 86.0034 29.444 86.2514 29.316C86.4994 29.188 86.7114 29.004 86.8874 28.764C87.0634 28.524 87.1994 28.236 87.2954 27.9C87.3914 27.564 87.4394 27.192 87.4394 26.784C87.4394 26.384 87.3914 26.02 87.2954 25.692C87.1994 25.364 87.0634 25.084 86.8874 24.852C86.7114 24.612 86.4994 24.428 86.2514 24.3C86.0034 24.164 85.7274 24.096 85.4234 24.096ZM90.407 30H90.143V27.936H90.443C90.755 29.064 91.323 29.628 92.147 29.628C92.467 29.628 92.719 29.552 92.903 29.4C93.095 29.24 93.191 29 93.191 28.68C93.191 28.56 93.171 28.46 93.131 28.38C93.099 28.292 93.031 28.204 92.927 28.116C92.831 28.02 92.691 27.912 92.507 27.792C92.331 27.672 92.095 27.52 91.799 27.336C91.527 27.168 91.291 27.012 91.091 26.868C90.891 26.724 90.723 26.58 90.587 26.436C90.451 26.284 90.347 26.124 90.275 25.956C90.211 25.788 90.179 25.592 90.179 25.368C90.179 25.096 90.223 24.848 90.311 24.624C90.407 24.392 90.535 24.196 90.695 24.036C90.855 23.876 91.043 23.752 91.259 23.664C91.475 23.568 91.711 23.52 91.967 23.52C92.183 23.52 92.407 23.556 92.639 23.628C92.871 23.692 93.075 23.78 93.251 23.892L93.491 23.64H93.719V25.368H93.407C93.231 24.88 93.039 24.532 92.831 24.324C92.623 24.116 92.367 24.012 92.063 24.012C91.791 24.012 91.571 24.084 91.403 24.228C91.243 24.372 91.163 24.572 91.163 24.828C91.163 24.964 91.183 25.084 91.223 25.188C91.271 25.284 91.343 25.38 91.439 25.476C91.535 25.572 91.655 25.672 91.799 25.776C91.951 25.872 92.131 25.984 92.339 26.112C92.683 26.328 92.975 26.52 93.215 26.688C93.463 26.856 93.663 27.024 93.815 27.192C93.967 27.352 94.079 27.52 94.151 27.696C94.223 27.872 94.259 28.072 94.259 28.296C94.259 28.864 94.075 29.312 93.707 29.64C93.339 29.96 92.855 30.12 92.255 30.12C91.631 30.12 91.095 29.94 90.647 29.58L90.407 30ZM95.3042 24.396V23.952C95.7282 23.704 96.0602 23.456 96.3002 23.208C96.5402 22.96 96.7242 22.664 96.8522 22.32H97.2002V23.832H98.8082V24.396H97.2002V28.044C97.2002 28.324 97.2122 28.56 97.2362 28.752C97.2682 28.944 97.3162 29.1 97.3802 29.22C97.4442 29.332 97.5282 29.412 97.6322 29.46C97.7362 29.508 97.8682 29.532 98.0282 29.532C98.2282 29.532 98.3962 29.492 98.5322 29.412C98.6762 29.324 98.8162 29.18 98.9522 28.98L99.2522 29.208C99.1402 29.504 98.9442 29.732 98.6642 29.892C98.3922 30.044 98.0522 30.12 97.6442 30.12C97.1162 30.12 96.7122 29.996 96.4322 29.748C96.1602 29.492 96.0242 29.128 96.0242 28.656V24.396H95.3042Z" fill="#2D2D2D"/>
<defs>
<clipPath id="clip0">
<rect x="15" y="3" width="45" height="45" fill="white"/>
</clipPath>
</defs>
</svg>
